<?xml version="1.0" encoding="utf-8"?>
<!-- Generator: Adobe Illustrator 23.0.0, SVG Export Plug-In . SVG Version: 6.00 Build 0)  -->
<svg version="1.1" id="Camada_1" xmlns="http://www.w3.org/2000/svg" xmlns:xlink="http://www.w3.org/1999/xlink" x="0px" y="0px"
	 viewBox="0 0 441.6 164.3" style="enable-background:new 0 0 441.6 164.3;" xml:space="preserve">
<style type="text/css">
	.st0{enable-background:new    ;}
	.st1{fill:#32393F;}
	.st2{fill:#25ABE5;}
	.st3{fill:#0980D8;}
	.st4{fill:#575F64;}
	.st5{fill:#FFFFFF;}
	.st6{fill:#D8D8FC;}
</style>
<title>logo</title>
<g class="st0">
	<path class="st1" d="M201.4,134.2c-3.2,0-6.2-0.6-9-1.9c-2.8-1.2-5.3-2.9-7.4-5c-2.1-2.1-3.8-4.6-5-7.4c-1.2-2.8-1.8-5.8-1.8-8.9
		c0-3.2,0.6-6.2,1.8-9c1.2-2.8,2.9-5.3,5-7.4c2.1-2.1,4.6-3.8,7.4-5c2.8-1.2,5.8-1.8,9-1.8c3.2,0,6.2,0.6,9,1.8
		c2.8,1.2,5.3,2.9,7.4,5c2.1,2.1,3.8,4.6,5,7.4c1.2,2.8,1.8,5.8,1.8,9v9.8v13.3h-9.6V111c0-1.9-0.4-3.7-1.1-5.4
		c-0.7-1.7-1.7-3.1-2.9-4.4c-1.2-1.2-2.7-2.2-4.3-2.9c-1.6-0.7-3.4-1.1-5.2-1.1c-1.9,0-3.6,0.4-5.2,1.1c-1.6,0.7-3.1,1.7-4.3,2.9
		c-1.2,1.2-2.2,2.7-2.9,4.4c-0.7,1.7-1.1,3.5-1.1,5.4c0,1.9,0.4,3.6,1.1,5.2c0.7,1.6,1.7,3.1,2.9,4.3c1.2,1.2,2.7,2.2,4.3,2.9
		c1.6,0.7,3.4,1.1,5.2,1.1c0.6,0,1.2,0,1.7-0.1c0.5-0.1,1.1-0.2,1.6-0.3l2.2,9.4c-0.9,0.1-1.8,0.3-2.7,0.4
		C203.3,134.1,202.3,134.2,201.4,134.2z"/>
	<path class="st1" d="M238,136.1v3.5v0.1c0,3.5-0.7,6.6-2,9.5c-1.4,2.9-3.2,5.4-5.6,7.6l-7-6.6c3.3-2.6,4.9-6.1,4.9-10.6v-0.1v-9.7
		V87.8h9.7V136.1z"/>
	<path class="st1" d="M288,111c0.1,3.2-0.5,6.1-1.7,8.9c-1.2,2.8-2.9,5.3-5,7.3c-2.1,2.1-4.6,3.7-7.4,5c-2.8,1.2-5.8,1.9-8.9,1.9
		h-0.2c-3.2-0.1-6.1-0.7-8.9-1.9c-2.8-1.2-5.3-2.9-7.4-5c-2.1-2.1-3.8-4.5-5-7.3c-1.2-2.8-1.8-5.8-1.7-8.9V87.8h9.5l0.2,23.2
		c0,1.9,0.3,3.6,1,5.2c0.7,1.6,1.6,3.1,2.8,4.3c1.2,1.2,2.6,2.2,4.3,2.9c1.6,0.7,3.4,1.1,5.2,1.1c1.9,0,3.7-0.4,5.3-1.1
		c1.6-0.7,3.1-1.7,4.3-2.9c1.2-1.2,2.2-2.7,2.9-4.3c0.7-1.6,1.1-3.4,1.1-5.2V87.8h9.6V111z"/>
	<path class="st1" d="M338.1,101.1v9.9c0,3.2-0.6,6.2-1.8,9c-1.2,2.8-2.9,5.3-5,7.4c-2.1,2.1-4.6,3.8-7.4,5
		c-2.8,1.2-5.9,1.8-9.1,1.8c-3.2,0-6.2-0.6-9-1.8c-2.8-1.2-5.3-2.9-7.4-5c-2.1-2.1-3.8-4.6-5-7.4c-1.2-2.8-1.8-5.8-1.8-9
		c0-0.5,0-1,0-1.4c0-0.4,0.1-0.9,0.2-1.4c0.3-2.8,1.1-5.5,2.5-8c1.3-2.5,3-4.7,5.1-6.5c2.1-1.9,4.4-3.3,7-4.4c2.6-1,5.4-1.6,8.4-1.6
		c1,0,2,0.1,2.9,0.2c1,0.2,1.9,0.3,2.7,0.4l-2.2,9.4c-0.6-0.1-1.2-0.2-1.7-0.3c-0.5-0.1-1.1-0.1-1.7-0.1c-1.9,0-3.6,0.4-5.2,1.1
		c-1.6,0.7-3.1,1.7-4.3,2.9c-1.2,1.2-2.2,2.7-2.9,4.4c-0.7,1.7-1.1,3.4-1.1,5.3c0,1.9,0.4,3.6,1.1,5.2c0.7,1.6,1.7,3.1,2.9,4.3
		c1.2,1.2,2.7,2.2,4.3,2.9c1.6,0.7,3.4,1.1,5.2,1.1c1.9,0,3.6-0.4,5.3-1.1c1.7-0.7,3.1-1.7,4.4-2.9c1.2-1.2,2.2-2.7,2.9-4.3
		c0.7-1.6,1.1-3.4,1.1-5.2V85.7V66.2l9.6,9.5V101.1z"/>
	<path class="st1" d="M365,134.2c-3.2,0-6.2-0.6-9-1.9c-2.8-1.2-5.3-2.9-7.4-5c-2.1-2.1-3.8-4.6-5-7.4c-1.2-2.8-1.8-5.8-1.8-8.9
		c0-3.2,0.6-6.2,1.8-9c1.2-2.8,2.9-5.3,5-7.4c2.1-2.1,4.6-3.8,7.4-5c2.8-1.2,5.8-1.8,9-1.8c3.2,0,6.2,0.6,9,1.8
		c2.8,1.2,5.3,2.9,7.4,5c2.1,2.1,3.8,4.6,5,7.4c1.2,2.8,1.8,5.8,1.8,9v9.8v13.3h-9.6V111c0-1.9-0.4-3.7-1.1-5.4
		c-0.7-1.7-1.7-3.1-2.9-4.4c-1.2-1.2-2.7-2.2-4.3-2.9c-1.6-0.7-3.4-1.1-5.2-1.1s-3.6,0.4-5.2,1.1c-1.6,0.7-3.1,1.7-4.3,2.9
		c-1.2,1.2-2.2,2.7-2.9,4.4c-0.7,1.7-1.1,3.5-1.1,5.4c0,1.9,0.4,3.6,1.1,5.2c0.7,1.6,1.7,3.1,2.9,4.3c1.2,1.2,2.7,2.2,4.3,2.9
		c1.6,0.7,3.4,1.1,5.2,1.1c0.6,0,1.2,0,1.7-0.1c0.5-0.1,1.1-0.2,1.6-0.3l2.2,9.4c-0.9,0.1-1.8,0.3-2.7,0.4
		C366.9,134.1,365.9,134.2,365,134.2z"/>
</g>
<g class="st0">
	<path class="st1" d="M411.4,117.9c0-1.1,0-1.9,0-2.4c0-3.2,0.5-6,1.4-8.3c0.7-1.8,1.7-3.5,3.2-5.3c1.1-1.3,3-3.2,5.9-5.7
		c2.8-2.5,4.7-4.5,5.5-6s1.3-3.1,1.3-4.8c0-3.2-1.2-6-3.7-8.4s-5.5-3.6-9.1-3.6c-3.5,0-6.4,1.1-8.7,3.3c-2.3,2.2-3.8,5.6-4.6,10.2
		l-8.4-1c0.8-6.2,3-10.9,6.7-14.2c3.7-3.3,8.7-4.9,14.8-4.9c6.5,0,11.7,1.8,15.5,5.3s5.8,7.8,5.8,12.8c0,2.9-0.7,5.6-2,8
		c-1.4,2.4-4,5.4-8,8.9c-2.7,2.4-4.4,4.1-5.2,5.2c-0.8,1.1-1.4,2.4-1.8,3.8c-0.4,1.4-0.6,3.8-0.7,7.1H411.4z M410.9,134.2v-9.3h9.3
		v9.3H410.9z"/>
</g>
<path class="st2" d="M7.1,19.6h159.1v113.6H7.1V19.6z"/>
<path class="st3" d="M86.7,19.6h79.5v113.6H86.7V19.6z"/>
<path class="st4" d="M166.2,13.9H7.1c-3.1,0-5.7,2.5-5.7,5.6c0,0,0,0.1,0,0.1V127c0,3.2,2.5,7.1,5.7,7.1l79.2,0.8
	c3.2,0,85.5-5.2,85.5-8.3v-107c0-3.1-2.4-5.7-5.5-5.7C166.3,13.9,166.2,13.9,166.2,13.9z M160.5,127.5H12.8V25.3h147.8L160.5,127.5z
	"/>
<path class="st1" d="M171.9,19.6l-0.4,109.7c0,3.2-1.9,5.7-5.1,5.7H86.4l0.3-7.4h73.9V25.3H86.7V13.9h79.5c3.1,0,5.7,2.5,5.7,5.6
	C171.9,19.5,171.9,19.5,171.9,19.6z"/>
<path class="st4" d="M173.4,139.4v4.2c0,1.1-0.9,2-2,2H2c-1.1,0-2-0.9-2-2v-4.2h71.2c0.4,1.2,1.5,2,2.7,2h25.6c1.2,0,2.3-0.8,2.7-2
	H173.4z"/>
<path class="st1" d="M86.6,141.5l13-0.2c1.2,0,2.3-0.8,2.7-2h71.2v4.2c0,1.1-0.9,2-2,2l-84.8,0.1"/>
<path class="st5" d="M86.8,86.7l-29.8-9.2v15.3c0,7.1,13.4,12.9,29.9,12.9s29.9-5.8,29.9-12.9c0-0.1,0-0.1,0-0.2V77.5L86.8,86.7z"/>
<path class="st5" d="M36.8,66.9l10.7,3.8l0.9-1.9l3.9-0.3l0.6,0.6l-3.4,0.8L49,71.3c0,0-7.6,15.9-6.5,23.6c0,0,4.7,2.8,9.5,0
	l1.3-21.2v-1.8l7.1-1.6l-0.5,1.2l-5.3,1.7l2.4,0.9l29.8,9.2l29.8-9.2l20.2-7.2l-50-19.2L36.8,66.9z"/>
<path class="st6" d="M86.8,105.8c16.5,0,29.9-5.8,29.9-12.8c0-0.1,0-0.1,0-0.2V77.6l-29.8,9.2"/>
<path class="st6" d="M86.7,83.5l29.8-9.2l20.2-7.2l-50-19.3"/>
<path class="st2" d="M224.4,145.5h-42.9c-0.2,0-0.4-1.1-0.4-2.5v-3.9h43.8"/>
<g class="st0">
	<path class="st1" d="M234.5,13.9v58.2h-3.7V20.6L209,72.1h-3.4L183.9,21v51.2h-3.7V13.9h4.2l23,53.4l22.8-53.4H234.5z"/>
	<path class="st1" d="M278.9,66c3.1-2.3,5-5.5,5.6-9.6h3.9c-0.8,4.9-3.1,8.9-6.8,11.9c-3.7,3-8.4,4.5-14.1,4.5
		c-4.3,0-8-0.9-11.3-2.8c-3.3-1.9-5.9-4.6-7.8-8.2c-1.9-3.6-2.8-7.8-2.8-12.6c0-4.8,0.9-9,2.8-12.5c1.9-3.6,4.5-6.3,7.8-8.2
		c3.3-1.9,7.1-2.8,11.3-2.8c4.4,0,8.1,0.9,11.3,2.8c3.2,1.9,5.6,4.4,7.2,7.5c1.6,3.1,2.4,6.4,2.4,9.9c0,1.4-0.1,2.9-0.4,4.5h-38.8
		c0.1,4.3,0.9,7.9,2.6,10.8c1.7,2.9,3.9,5.1,6.6,6.4c2.7,1.4,5.6,2.1,8.8,2.1C272,69.5,275.8,68.3,278.9,66z M258.6,30.8
		c-2.7,1.4-4.9,3.6-6.6,6.4c-1.7,2.9-2.6,6.4-2.6,10.7H285c0.2-4.2-0.5-7.8-2.1-10.7c-1.6-2.9-3.8-5.1-6.5-6.4
		c-2.7-1.4-5.6-2.1-8.8-2.1C264.3,28.7,261.4,29.4,258.6,30.8z"/>
</g>
<path class="st2" d="M241.8,145.2l185.5,0.3c0.9,0,1.5-1.1,1.5-2.5v-3.9H242"/>
</svg>
